<svg width="2480" height="2475" xmlns="http://www.w3.org/2000/svg" xmlns:xlink="http://www.w3.org/1999/xlink" xml:space="preserve" overflow="hidden"><defs><radialGradient cx="0.25" cy="0.25" r="4706307" fx="0" fy="0" gradientUnits="userSpaceOnUse" spreadMethod="pad" id="fill0" gradientTransform="matrix(0.000360892 0 0 0.000360892 1622 688)"><stop offset="0" stop-color="#FFFFFF" stop-opacity="1"/><stop offset="0.1" stop-color="#DAE3F3" stop-opacity="1"/><stop offset="0.21003" stop-color="#B4C7E7" stop-opacity="1"/><stop offset="0.31" stop-color="#8FAADC" stop-opacity="1"/><stop offset="0.46" stop-color="#2F5597" stop-opacity="1"/><stop offset="0.58" stop-color="#0B1423" stop-opacity="1"/><stop offset="1" stop-color="#0B1423" stop-opacity="1"/></radialGradient></defs><g transform="translate(-962 0)"><g><path d="M0 283.871C-4.44825e-13 127.094 521.43-7.41376e-14 1164.65-1.48275e-13 1805.98-1.85344e-13 2326.63 126.378 2329.28 282.696L2145.6 282.881C2140.25 227.529 1696.72 183.101 1154.95 183.648 616.967 184.191 183.64 228.903 183.64 283.871Z" fill="#FFFFFF" fill-rule="evenodd" fill-opacity="1" transform="matrix(-0.922937 0.384952 0.384952 0.922937 3172.54 547.468)"/><path d="M1622 1288.5C1622 956.853 1890.85 688 2222.5 688 2554.15 688 2823 956.853 2823 1288.5 2823 1620.15 2554.15 1889 2222.5 1889 1890.85 1889 1622 1620.15 1622 1288.5Z" fill="url(#fill0)" fill-rule="evenodd"/><path d="M3283.25 807.707C3343.13 952.6 2909.77 1269.21 2315.31 1514.87 1722.6 1759.82 1193.15 1841.87 1131 1698.42L1300.68 1628.1C1326.77 1677.21 1753.64 1548.87 2254.13 1341.45 2751.12 1135.47 3134.52 928.647 3113.53 877.846Z" fill="#FFFFFF" fill-rule="evenodd" fill-opacity="1"/></g></g></svg>